<svg width="400" height="400" viewBox="0 0 400 400" xmlns="http://www.w3.org/2000/svg">
  <path d="M100 300 C 50 250, 50 150, 100 100 C 130 70, 160 100, 140 130" 
        fill="none" stroke="#e67e22" stroke-width="25" stroke-linecap="round" />
  
  <path d="M120 180 L 90 120 L 160 150 Z" fill="#f39c12" stroke="#332211" stroke-width="4" />
  <path d="M280 180 L 310 120 L 240 150 Z" fill="#f39c12" stroke="#332211" stroke-width="4" />

  <ellipse cx="200" cy="220" rx="90" ry="80" fill="#f39c12" stroke="#332211" stroke-width="4"/>
  
  <circle cx="165" cy="190" r="25" fill="white" stroke="#332211" stroke-width="3" />
  <circle cx="235" cy="190" r="25" fill="white" stroke="#332211" stroke-width="3" />
  <circle cx="170" cy="195" r="8" fill="#111" />
  <circle cx="230" cy="195" r="8" fill="#111" />

  <path d="M160 250 Q 200 220 240 250 Q 240 320 200 330 Q 160 320 160 250" 
        fill="#441111" stroke="#332211" stroke-width="3" />
  
  <path d="M175 252 L 180 265 L 185 252" fill="white" />
  <path d="M215 252 L 220 265 L 225 252" fill="white" />

  <rect x="140" y="320" width="40" height="30" rx="15" fill="#f39c12" stroke="#332211" stroke-width="3" />
  <rect x="220" y="320" width="40" height="30" rx="15" fill="#f39c12" stroke="#332211" stroke-width="3" />
</svg>